<svg width="824" height="353" viewBox="0 0 824 353" fill="none" xmlns="http://www.w3.org/2000/svg">
<path fill-rule="evenodd" clip-rule="evenodd" d="M625.5 90L686 176.374L660.765 210L649.01 201.189L667.856 176.077L625.5 115.607L583.144 176.077L601.99 201.189L590.235 210L565 176.374L625.5 90Z" fill="#024F94"/>
<path fill-rule="evenodd" clip-rule="evenodd" d="M669.5 270L609 183.626L634.235 150L645.99 158.811L627.144 183.923L669.5 244.393L711.856 183.923L693.01 158.811L704.765 150L730 183.626L669.5 270Z" fill="#024F94"/>
<path fill-rule="evenodd" clip-rule="evenodd" d="M29 70H515V92H29V70Z" fill="#024F94"/>
<path fill-rule="evenodd" clip-rule="evenodd" d="M22 80.6667C17.9499 80.6667 14.6667 83.9499 14.6667 88C14.6667 92.0501 17.9499 95.3333 22 95.3333C26.0501 95.3333 29.3333 92.0501 29.3333 88C29.3333 83.9499 26.0501 80.6667 22 80.6667ZM44 88C44 100.15 34.1503 110 22 110C9.84974 110 0 100.15 0 88C0 75.8497 9.84974 66 22 66C34.1503 66 44 75.8497 44 88Z" fill="#024F94"/>
<path fill-rule="evenodd" clip-rule="evenodd" d="M647.5 330.937C732.793 330.937 801.937 261.793 801.937 176.5C801.937 91.2065 732.793 22.0625 647.5 22.0625C562.207 22.0625 493.062 91.2065 493.062 176.5C493.062 261.793 562.207 330.937 647.5 330.937ZM647.5 353C744.978 353 824 273.978 824 176.5C824 79.0217 744.978 0 647.5 0C550.022 0 471 79.0217 471 176.5C471 273.978 550.022 353 647.5 353Z" fill="#8BAFC8"/>
<path d="M81 203.484H103.506C107.025 203.484 110.055 202.201 112.597 199.636C115.138 197.071 116.409 194.012 116.409 190.46V183.282C116.409 179.73 115.138 176.671 112.597 174.106C110.055 171.541 107.025 170.258 103.506 170.258H96.3951C92.1431 170.258 88.5021 168.753 85.4719 165.744C82.4906 162.685 81 159.01 81 154.718V147.54C81 143.248 82.4906 139.597 85.4719 136.588C88.5021 133.529 92.1431 132 96.3951 132H118.901V134.516H96.3951C92.8763 134.516 89.8461 135.799 87.3047 138.364C84.7633 140.929 83.4925 143.988 83.4925 147.54V154.718C83.4925 158.27 84.7633 161.329 87.3047 163.894C89.8461 166.459 92.8763 167.742 96.3951 167.742H103.506C107.758 167.742 111.375 169.271 114.356 172.33C117.386 175.339 118.901 178.99 118.901 183.282V190.46C118.901 194.752 117.386 198.403 114.356 201.412C111.375 204.471 107.758 206 103.506 206H81V203.484Z" fill="#024F94"/>
<path d="M144.791 206C140.588 206 136.972 204.471 133.941 201.412C130.911 198.403 129.396 194.752 129.396 190.46V147.54C129.396 143.248 130.887 139.597 133.868 136.588C136.898 133.529 140.539 132 144.791 132H151.902C156.154 132 159.771 133.529 162.752 136.588C165.782 139.597 167.298 143.248 167.298 147.54V190.46C167.298 194.752 165.782 198.403 162.752 201.412C159.771 204.471 156.154 206 151.902 206H144.791ZM131.889 190.46C131.889 194.012 133.159 197.071 135.701 199.636C138.242 202.201 141.272 203.484 144.791 203.484H151.902C155.421 203.484 158.451 202.201 160.993 199.636C163.534 197.071 164.805 194.012 164.805 190.46V147.54C164.805 143.988 163.534 140.929 160.993 138.364C158.451 135.799 155.421 134.516 151.902 134.516H144.791C141.272 134.516 138.242 135.799 135.701 138.364C133.159 140.929 131.889 143.988 131.889 147.54V190.46Z" fill="#024F94"/>
<path d="M196.982 134.516H219.488V132H218.242H196.982C192.73 132 189.089 133.529 186.059 136.588C183.077 139.597 181.587 143.248 181.587 147.54V167.742V170.258V206H184.079V170.258H219.488V167.742H184.079V147.54C184.079 143.988 185.35 140.929 187.891 138.364C190.433 135.799 193.463 134.516 196.982 134.516Z" fill="#024F94"/>
<path d="M256 132H218.099V134.516H235.766V206H238.259V134.516H256V132Z" fill="#024F94"/>
<path fill-rule="evenodd" clip-rule="evenodd" d="M116.759 170.21C113.079 166.477 108.511 164.566 103.268 164.566H96.1306C93.5976 164.566 91.4855 163.694 89.6082 161.816C87.7308 159.937 86.8596 157.823 86.8596 155.288V148.145C86.8596 145.611 87.7308 143.497 89.6082 141.618C91.4855 139.739 93.5976 138.867 96.1306 138.867H122.398V129H96.1306C90.8787 129 86.291 130.916 82.5659 134.644C78.8771 138.335 77 142.907 77 148.145V155.288C77 160.525 78.8753 165.11 82.5448 168.842L82.5871 168.885C86.3167 172.557 90.8979 174.434 96.1306 174.434H103.268C105.801 174.434 107.913 175.306 109.79 177.184C111.667 179.063 112.539 181.177 112.539 183.712V190.855C112.539 193.389 111.667 195.503 109.79 197.382C107.913 199.261 105.801 200.133 103.268 200.133H77V210H103.268C108.511 210 113.078 208.09 116.759 204.356C120.489 200.673 122.398 196.102 122.398 190.855V183.712C122.398 178.464 120.489 173.893 116.759 170.21ZM131.14 134.644C134.865 130.916 139.452 129 144.704 129H151.842C157.085 129 161.652 130.911 165.333 134.644C169.063 138.327 170.972 142.898 170.972 148.145V190.855C170.972 196.102 169.063 200.673 165.333 204.356C161.652 208.089 157.085 210 151.842 210H144.704C139.494 210 134.938 208.079 131.224 204.367C127.486 200.682 125.574 196.107 125.574 190.855V148.145C125.574 142.907 127.451 138.335 131.14 134.644ZM183.522 134.644C187.247 130.916 191.834 129 197.086 129H260V138.867H242.194V210H232.334V138.867H197.086C194.553 138.867 192.441 139.739 190.564 141.618C188.687 143.497 187.815 145.611 187.815 148.145V164.566H223.354V174.434H187.815V210H177.956V148.145C177.956 142.907 179.833 138.335 183.522 134.644ZM144.704 138.867C142.171 138.867 140.059 139.739 138.182 141.618C136.305 143.497 135.433 145.611 135.433 148.145V190.855C135.433 193.389 136.305 195.503 138.182 197.382C140.059 199.261 142.171 200.133 144.704 200.133H151.842C154.374 200.133 156.487 199.261 158.364 197.382C160.241 195.503 161.112 193.389 161.112 190.855V148.145C161.112 145.611 160.241 143.497 158.364 141.618C156.487 139.739 154.374 138.867 151.842 138.867H144.704Z" fill="#024F94"/>
<path d="M265 206V140.436C265 138.265 265.172 136.588 265.515 135.404C266.006 133.776 266.84 132.937 268.018 132.888C269.097 133.036 270.005 133.628 270.741 134.664C271.183 135.305 271.895 136.687 272.876 138.808L297.461 198.23C298.344 200.351 299.154 201.757 299.89 202.448C299.988 202.3 300.061 202.127 300.11 201.93C300.405 200.943 300.552 199.488 300.552 197.564V132H303.055V197.564C303.055 199.735 302.883 201.412 302.54 202.596C302.049 204.224 301.215 205.063 300.037 205.112C298.957 204.964 298.049 204.372 297.313 203.336C296.872 202.695 296.16 201.313 295.179 199.192L270.594 139.77C269.711 137.649 268.901 136.243 268.165 135.552C268.067 135.7 267.993 135.873 267.944 136.07C267.65 137.057 267.503 138.512 267.503 140.436V206H265Z" fill="black"/>
<path d="M340.43 132H333.291C329.021 132 325.365 133.529 322.323 136.588C319.33 139.597 317.833 143.248 317.833 147.54V206H320.336V170.258H353.385V206H355.888V147.54C355.888 143.248 354.367 139.597 351.324 136.588C348.331 133.529 344.7 132 340.43 132ZM320.336 167.742V147.54C320.336 143.988 321.612 140.929 324.163 138.364C326.715 135.799 329.757 134.516 333.291 134.516H340.43C343.963 134.516 347.006 135.799 349.558 138.364C352.109 140.929 353.385 143.988 353.385 147.54V167.742H320.336Z" fill="black"/>
<path d="M382.665 199.192L367.575 132.592L370.078 132L385.094 198.6C385.682 201.264 386.345 202.867 387.081 203.41C387.277 203.262 387.474 203.015 387.67 202.67C388.161 201.782 388.602 200.425 388.995 198.6L404.084 132L406.513 132.592L391.497 199.192C391.007 201.412 390.491 202.991 389.952 203.928C389.265 205.112 388.308 205.803 387.081 206C385.854 205.852 384.897 205.161 384.21 203.928C383.769 203.089 383.253 201.511 382.665 199.192Z" fill="black"/>
<path d="M435.261 203.484V134.516H453V132H414.945V134.516H432.758V203.484H414.945V206H453V203.484H435.261Z" fill="black"/>
<path fill-rule="evenodd" clip-rule="evenodd" d="M400.746 128L410.308 130.329L394.524 200.285C394.523 200.287 394.522 200.29 394.522 200.292C394.02 202.559 393.411 204.603 392.574 206.057L392.568 206.067C391.389 208.097 389.536 209.528 387.11 209.918L386.602 210L386.091 209.938C383.528 209.629 381.627 208.107 380.459 206.011L380.416 205.935C379.747 204.664 379.145 202.693 378.562 200.397L378.538 200.304L362.668 130.305L372.321 128.024L386.496 190.847L400.746 128ZM296.486 128.778H306.332V197.861C306.332 200.153 306.158 202.234 305.67 203.913L305.66 203.95C305.311 205.106 304.739 206.34 303.749 207.334C302.682 208.406 301.308 209.013 299.799 209.076L299.473 209.09L299.149 209.045C296.904 208.738 295.157 207.476 293.938 205.762L293.907 205.718C293.258 204.777 292.423 203.108 291.466 201.041L291.434 200.972L270.845 151.246V209.965H261V140.882C261 138.59 261.174 136.508 261.661 134.83L261.672 134.793C262.021 133.636 262.593 132.402 263.582 131.409C264.649 130.336 266.024 129.73 267.533 129.667L267.859 129.653L268.182 129.697C270.427 130.005 272.175 131.266 273.394 132.98L273.425 133.024C274.074 133.966 274.909 135.635 275.866 137.702L275.898 137.771L296.486 187.496V128.778ZM319.293 134.435C323.013 130.698 327.594 128.778 332.838 128.778H339.965C345.2 128.778 349.761 130.693 353.436 134.435C357.161 138.126 359.067 142.708 359.067 147.967V209.965H349.222V174.316H323.581V209.965H313.736V147.967C313.736 142.717 315.61 138.135 319.293 134.435ZM323.581 164.426H349.222V147.967C349.222 145.427 348.352 143.308 346.477 141.425C344.603 139.542 342.494 138.668 339.965 138.668H332.838C330.309 138.668 328.2 139.542 326.325 141.425C324.451 143.308 323.581 145.427 323.581 147.967V164.426ZM410.668 128.778H456V138.668H438.293V200.075H456V209.965H410.668V200.075H428.448V138.668H410.668V128.778Z" fill="#8BAFC8"/>
</svg>
